<?xml version="1.0" encoding="UTF-8"?>
<svg width="24px" height="24px" viewBox="0 0 24 24" version="1.1" xmlns="http://www.w3.org/2000/svg" xmlns:xlink="http://www.w3.org/1999/xlink">
    <!-- Generator: Sketch 52.5 (67469) - http://www.bohemiancoding.com/sketch -->
    <title>icon/line/ic_addtocart</title>
    <desc>Created with Sketch.</desc>
    <g id="1-Line-Icon" stroke="none" stroke-width="1" fill="none" fill-rule="evenodd">
        <g id="icon/line/ic_addtocart">
            <g id="ic_addtocart">
                <polygon id="Fill-1" fill="#E5E5E4" opacity="0" points="0 24 24 24 24 0 0 0"></polygon>
                <path d="M9,20.75 C9,21.4405 8.4405,22 7.75,22 C7.0595,22 6.5,21.4405 6.5,20.75 C6.5,20.0595 7.0595,19.5 7.75,19.5 C8.4405,19.5 9,20.0595 9,20.75" id="Fill-19" fill="#364058"></path>
                <path d="M17,20.75 C17,21.4405 16.4405,22 15.75,22 C15.0595,22 14.5,21.4405 14.5,20.75 C14.5,20.0595 15.0595,19.5 15.75,19.5 C16.4405,19.5 17,20.0595 17,20.75" id="Fill-21" fill="#364058"></path>
                <path d="M18.21095,12.19335 L17.74295,14.99985 L8.03145,14.99985 L6.98545,14.99985 L6.56095,14.99985 L5.52395,7.99985 L6.20745,7.99985 L8.03145,7.99985 L11.52545,7.99985 C11.50895,7.83535 11.49995,7.66885 11.49995,7.49985 C11.49995,7.33135 11.50895,7.16435 11.52545,6.99985 L5.37595,6.99985 L5.12095,5.28035 C5.01295,4.55035 4.37495,3.99985 3.63745,3.99985 L1.99995,3.99985 L1.99995,4.99985 L3.63745,4.99985 C3.88295,4.99985 4.09595,5.18335 4.13195,5.42685 L5.87895,17.21985 C5.98745,17.94985 6.62495,18.49985 7.36295,18.49985 L17.49995,18.49985 L17.49995,17.49985 L7.36295,17.49985 C7.11745,17.49985 6.90445,17.31635 6.86795,17.07335 L6.70895,15.99985 L17.74295,15.99985 C18.23195,15.99985 18.64895,15.64635 18.72945,15.16435 L19.31895,11.62885 C18.97795,11.86185 18.60495,12.04935 18.21095,12.19335" id="Fill-23" fill="#364058"></path>
                <path d="M21.5,7.5 C21.5,10.2615 19.261,12.5 16.5,12.5 C13.739,12.5 11.5,10.2615 11.5,7.5 C11.5,4.7385 13.739,2.5 16.5,2.5 C19.261,2.5 21.5,4.7385 21.5,7.5 Z" id="Stroke-25" stroke="#364058"></path>
                <path d="M16.5,5 L16.5,10" id="Stroke-27" stroke="#364058"></path>
                <path d="M19,7.5 L14,7.5" id="Stroke-29" stroke="#364058"></path>
            </g>
        </g>
    </g>
</svg>