<?xml version="1.0" encoding="UTF-8"?>
<svg width="24px" height="24px" viewBox="0 0 24 24" version="1.1" xmlns="http://www.w3.org/2000/svg" xmlns:xlink="http://www.w3.org/1999/xlink">
    <!-- Generator: Sketch 52.5 (67469) - http://www.bohemiancoding.com/sketch -->
    <title>icon/line/ic_bukalapakcredits</title>
    <desc>Created with Sketch.</desc>
    <g id="1-Line-Icon" stroke="none" stroke-width="1" fill="none" fill-rule="evenodd">
        <g id="icon/line/ic_bukalapakcredits">
            <g id="ic_bukalapakcredits">
                <rect id="Rectangle-4" fill="#FFFFFF" opacity="0" x="0" y="0" width="24" height="24"></rect>
                <g id="Group" transform="translate(3.000000, 3.000000)" fill="#364058">
                    <path d="M9,17 C6.0285,17 1,15.947 1,12 C1,10.3165 2.4555,7.7755 6.541,5.6915 C6.944,5.486 7.2735,5.184 7.52,4.8245 C8.009,4.9275 8.504,4.9835 9,4.9835 C9.496,4.9835 9.991,4.9275 10.48,4.8245 C10.7265,5.184 11.056,5.486 11.459,5.6915 C15.5445,7.7755 17,10.3165 17,12 C17,15.947 11.9715,17 9,17 M7.86,2.418 L7.3875,1 L10.6125,1 L10.14,2.418 C10.047,2.6965 10,2.9865 10,3.28 C10,3.488 10.0285,3.6895 10.0725,3.886 C9.362,4.011 8.638,4.011 7.9275,3.886 C7.9715,3.6895 8,3.488 8,3.28 C8,2.9865 7.953,2.6965 7.86,2.418 M12.635,5.1925 L13.3145,5.4645 C13.375,5.4885 13.438,5.5 13.5,5.5 C13.698,5.5 13.886,5.381 13.9645,5.186 C14.067,4.929 13.942,4.6385 13.6855,4.5355 L12.2195,3.949 L13.2235,3.4475 C13.4705,3.3235 13.571,3.0235 13.4475,2.7765 C13.323,2.5295 13.0235,2.4295 12.7765,2.5525 L11.0105,3.436 C11.006,3.384 11,3.3325 11,3.28 C11,3.0945 11.03,2.9105 11.0885,2.7345 L11.561,1.316 C11.777,0.6685 11.295,0 10.6125,0 L7.3875,0 C6.705,0 6.223,0.6685 6.439,1.316 L6.9115,2.7345 C6.97,2.9105 7,3.0945 7,3.28 C7,3.3995 6.984,3.516 6.9605,3.631 C6.869,3.599 6.776,3.572 6.6855,3.5355 C6.431,3.434 6.138,3.5575 6.0355,3.8145 C5.933,4.071 6.058,4.362 6.3145,4.4645 C6.368,4.486 6.4235,4.5005 6.4775,4.521 C6.363,4.631 6.2325,4.7265 6.0865,4.8005 C2.966,6.3925 0,9.0615 0,12 C0,16.5 5.134,18 9,18 C12.866,18 18,16.5 18,12 C18,9.2895 15.4755,6.8105 12.635,5.1925" id="Fill-1"></path>
                    <path d="M6.5,9.5 L7,9.5 C7.2755,9.5 7.5,9.724 7.5,10 C7.5,10.276 7.2755,10.5 7,10.5 L6.5,10.5 L6.5,9.5 Z M8.5,10 C8.5,9.173 7.827,8.5 7,8.5 L6.5,8.5 L5.5,8.5 L5.5,11.5 L5.5,13 L6.5,13 L6.5,11.5 C7.0515,11.5 7.5,11.9485 7.5,12.5 L7.5,13 L8.5,13 L8.5,12.5 C8.5,11.975 8.2925,11.5 7.96,11.143 C8.2875,10.8675 8.5,10.46 8.5,10 Z" id="Fill-3"></path>
                    <path d="M11,12 L10.5,12 L10.5,11 L11,11 C11.2755,11 11.5,11.224 11.5,11.5 C11.5,11.776 11.2755,12 11,12 M11,10 L10.5,10 L9.5,10 L9.5,13 L9.5,14.5 L10.5,14.5 L10.5,13 L11,13 C11.827,13 12.5,12.327 12.5,11.5 C12.5,10.673 11.827,10 11,10" id="Fill-5"></path>
                </g>
            </g>
        </g>
    </g>
</svg>