<?xml version="1.0" encoding="UTF-8"?>
<svg width="24px" height="24px" viewBox="0 0 24 24" version="1.1" xmlns="http://www.w3.org/2000/svg" xmlns:xlink="http://www.w3.org/1999/xlink">
    <!-- Generator: Sketch 52.5 (67469) - http://www.bohemiancoding.com/sketch -->
    <title>icon/line/ic_bukadanaline</title>
    <desc>Created with Sketch.</desc>
    <g id="1-Line-Icon" stroke="none" stroke-width="1" fill="none" fill-rule="evenodd">
        <g id="icon/line/ic_bukadanaline">
            <g id="ic_bukadanaline">
                <g id="Group-5">
                    <polygon id="Fill-1" fill="#E6E6E6" opacity="0" points="0 24 24 24 24 0 0 0"></polygon>
                    <path d="M6.0613,9 C5.3803,9 4.9223,8.883 4.6138,8.704 C4.2438,8.4305 3.9998,7.9945 3.9998,7.5 L3.9998,7.251 C3.9998,6.5025 4.5598,5.8635 5.3018,5.764 L17.9998,4.071 L17.9998,9 L6.0613,9 Z M5.4998,20 C4.6728,20 3.9998,19.327 3.9998,18.5 L3.9998,9.508 C4.0203,9.521 4.0473,9.531 4.0688,9.544 C4.4753,9.8295 4.9673,10 5.4998,10 L5.9998,10 L5.9998,20 L5.4998,20 Z M20.4998,9 L18.9998,9 L18.9998,4.071 C18.9998,3.7825 18.8753,3.5085 18.6588,3.3185 C18.4413,3.1285 18.1518,3.0415 17.8683,3.08 L5.1693,4.773 C3.9328,4.938 2.9998,6.003 2.9998,7.251 L2.9998,7.5 L2.9998,18.5 C2.9998,19.8785 4.1218,21 5.4998,21 L11.9998,21 L11.9998,20 L6.9998,20 L6.9998,10 L18.4998,10 L19.9998,10 L19.9998,12 L20.9998,12 L20.9998,9.5 C20.9998,9.224 20.7763,9 20.4998,9 Z" id="Fill-18" fill="#364058"></path>
                    <path d="M19.1997,16.41555 L19.1997,16.52405 L19.1997,17.79555 C19.1997,17.89505 19.1622,17.91655 19.0732,17.86305 C18.6902,17.63055 18.2722,17.55105 17.8282,17.59255 C17.5237,17.62055 17.2307,17.69805 16.9417,17.79305 C16.6117,17.90205 16.2837,18.01555 15.9527,18.12155 C15.6552,18.21655 15.3517,18.28505 15.0367,18.29805 C14.6327,18.31505 14.2577,18.22255 13.9152,18.01205 C13.8332,17.96255 13.7997,17.88555 13.7997,17.79155 C13.8002,17.33255 13.8002,16.87405 13.8002,16.41555 L13.8002,15.77505 C13.8002,15.60155 13.7987,15.42755 13.8017,15.25455 C13.8022,15.22455 13.8142,15.18305 13.8362,15.16905 C13.8532,15.15755 13.8977,15.17405 13.9222,15.18955 C14.1097,15.31155 14.3097,15.40655 14.5297,15.45855 C14.6687,15.49105 14.8082,15.50655 14.9482,15.50655 C15.0527,15.50655 15.1572,15.49805 15.2622,15.48305 C15.6842,15.42105 16.0747,15.26155 16.4707,15.11655 C16.7927,14.99905 17.1147,14.87755 17.4447,14.78655 C18.0112,14.63155 18.5582,14.67305 19.0597,15.00705 C19.1517,15.06855 19.2002,15.14805 19.2002,15.25855 C19.1992,15.64405 19.1997,16.03005 19.1997,16.41555 M16.5002,12.00005 C14.0147,12.00005 12.0002,14.01455 12.0002,16.50005 C12.0002,18.98555 14.0147,21.00005 16.5002,21.00005 C18.9852,21.00005 21.0002,18.98555 21.0002,16.50005 C21.0002,14.01455 18.9852,12.00005 16.5002,12.00005" id="Fill-20" fill="#108EE9"></path>
                </g>
            </g>
        </g>
    </g>
</svg>