<?xml version="1.0" encoding="UTF-8"?>
<svg width="24px" height="24px" viewBox="0 0 24 24" version="1.1" xmlns="http://www.w3.org/2000/svg" xmlns:xlink="http://www.w3.org/1999/xlink">
    <!-- Generator: Sketch 52.5 (67469) - http://www.bohemiancoding.com/sketch -->
    <title>icon/line/ic_bukadompettopup</title>
    <desc>Created with Sketch.</desc>
    <g id="1-Line-Icon" stroke="none" stroke-width="1" fill="none" fill-rule="evenodd">
        <g id="icon/line/ic_bukadompettopup">
            <g id="ic_bukadompettopup">
                <polygon id="Fill-1" fill="#686868" opacity="0" points="0 24 24 24 24 0 0 0"></polygon>
                <g id="Group-6" transform="translate(3.000000, 3.000000)" fill="#364058">
                    <path d="M1,15 L1,5.678 C1.3225,5.8785 1.699,6 2.1065,6 L2.5,6 L3,6 L3,16 L2,16 C1.45,16 1,15.55 1,15 Z M4,6 L14.5,6 L16,6 L16,10.38 L17,11.38 L17,5.5 C17,5.225 16.775,5 16.5,5 L14.5,5 L2.5,5 L2.1065,5 C1.4965,5 1,4.5035 1,3.8935 C1,3.346 1.408,2.875 1.95,2.798 L14,1.0765 L14,4 L15,4 L15,0.5 C15,0.355 14.937,0.2175 14.8275,0.1225 C14.7185,0.0275 14.5725,-0.0155 14.429,0.005 L1.8085,1.808 C0.91,1.9365 0,2.5 0,3.5 L0,15 C0,16.105 0.895,17 2,17 L13,17 L13,16 L4,16 L4,6 Z" id="Fill-2"></path>
                    <polygon id="Fill-4" points="14.5 10.29295 10.6465 14.14645 11.3535 14.85345 14 12.20695 14 17.99995 15 17.99995 15 12.20695 17.6465 14.85345 18.3535 14.14645"></polygon>
                </g>
            </g>
        </g>
    </g>
</svg>