<?xml version="1.0" encoding="UTF-8"?>
<svg width="17px" height="18px" viewBox="0 0 17 18" version="1.1" xmlns="http://www.w3.org/2000/svg" xmlns:xlink="http://www.w3.org/1999/xlink">
    <!-- Generator: Sketch 52.5 (67469) - http://www.bohemiancoding.com/sketch -->
    <title>ic_catatanpelapak</title>
    <desc>Created with Sketch.</desc>
    <g id="1-Line-Icon" stroke="none" stroke-width="1" fill="none" fill-rule="evenodd">
        <g id="icon/line/ic_catatanpelapak" transform="translate(-3.000000, -2.000000)">
            <g id="ic_catatanpelapak">
                <g id="Group-26" transform="translate(3.000000, 2.000000)">
                    <path d="M15.0083003,4.5 C15.4854334,4.5 15.816,4.5 16,4.5 C16.276,4.5 16.5,4.724 16.5,5 L16.5,17 C16.5,17.276 16.276,17.5 16,17.5 L3,17.5 C2.724,17.5 2.5,17.276 2.5,17 L2.5,16" id="Stroke-18" stroke="#364058" stroke-linejoin="round"></path>
                    <path d="M14,15.5 L1,15.5 C0.724,15.5 0.5,15.276 0.5,15 L0.5,2 C0.5,1.724 0.724,1.5 1,1.5 L14,1.5 C14.276,1.5 14.5,1.724 14.5,2 L14.5,15 C14.5,15.276 14.276,15.5 14,15.5" id="Fill-20"></path>
                    <path d="M13,14.5 L1,14.5 C0.724,14.5 0.5,14.276 0.5,14 L0.5,2 C0.5,1.724 0.724,1.5 1,1.5 L13,1.5 C13.276,1.5 13.5,1.724 13.5,2 L13.5,14 C13.5,14.276 13.276,14.5 13,14.5 Z" id="Stroke-22" stroke="#364058" stroke-linecap="round"></path>
                    <path d="M7.85915,1.4868 C8.19415,0.9363 8.84815,0.7233 9.31965,1.0103 C9.79165,1.2973 9.90215,1.9763 9.56765,2.5268 L7.14065,6.5133 C6.80615,7.0633 6.15165,7.2768 5.68015,6.9898 C5.20865,6.7028 5.09765,6.0238 5.43265,5.4733 L6.34265,3.9783" id="Stroke-24" stroke="#364058" stroke-linecap="round"></path>
                </g>
            </g>
        </g>
    </g>
</svg>