<?xml version="1.0" encoding="UTF-8"?>
<svg width="24px" height="24px" viewBox="0 0 24 24" version="1.1" xmlns="http://www.w3.org/2000/svg" xmlns:xlink="http://www.w3.org/1999/xlink">
    <!-- Generator: Sketch 52.5 (67469) - http://www.bohemiancoding.com/sketch -->
    <title>icon/line/ic_chatnotif</title>
    <desc>Created with Sketch.</desc>
    <g id="1-Line-Icon" stroke="none" stroke-width="1" fill="none" fill-rule="evenodd">
        <g id="icon/line/ic_chatnotif">
            <g id="ic_chatnotif">
                <rect id="Rectangle-4" fill="#FFFFFF" opacity="0" x="0" y="0" width="24" height="24"></rect>
                <g id="Group-46" transform="translate(2.500000, 2.500000)" fill="#364058">
                    <path d="M16.4444444,0 L2.05555556,0 C0.920375,0 0,0.920375 0,2.05555556 L0,13.875 L0,18.5 L6.0125,13.875 L16.4444444,13.875 C17.579625,13.875 18.5,12.954625 18.5,11.8194444 L18.5,2.05555556 C18.5,0.920375 17.579625,0 16.4444444,0 M16.4444444,1.02777778 C17.0112639,1.02777778 17.4722222,1.48873611 17.4722222,2.05555556 L17.4722222,11.8194444 C17.4722222,12.3862639 17.0112639,12.8472222 16.4444444,12.8472222 L6.0125,12.8472222 L5.66305556,12.8472222 L5.38606944,13.0604861 L1.02777778,16.4125833 L1.02777778,13.875 L1.02777778,2.05555556 C1.02777778,1.48873611 1.48873611,1.02777778 2.05555556,1.02777778 L16.4444444,1.02777778" id="Fill-1"></path>
                    <path d="M14.3888889,6.68055556 C14.3888889,7.24840278 13.9289583,7.70833333 13.3611111,7.70833333 C12.7932639,7.70833333 12.3333333,7.24840278 12.3333333,6.68055556 C12.3333333,6.11270833 12.7932639,5.65277778 13.3611111,5.65277778 C13.9289583,5.65277778 14.3888889,6.11270833 14.3888889,6.68055556" id="Fill-3"></path>
                    <path d="M10.2777778,6.68055556 C10.2777778,7.24840278 9.81784722,7.70833333 9.25,7.70833333 C8.68215278,7.70833333 8.22222222,7.24840278 8.22222222,6.68055556 C8.22222222,6.11270833 8.68215278,5.65277778 9.25,5.65277778 C9.81784722,5.65277778 10.2777778,6.11270833 10.2777778,6.68055556" id="Fill-5"></path>
                    <path d="M6.16666667,6.68055556 C6.16666667,7.24840278 5.70673611,7.70833333 5.13888889,7.70833333 C4.57104167,7.70833333 4.11111111,7.24840278 4.11111111,6.68055556 C4.11111111,6.11270833 4.57104167,5.65277778 5.13888889,5.65277778 C5.70673611,5.65277778 6.16666667,6.11270833 6.16666667,6.68055556" id="Fill-7"></path>
                </g>
                <circle id="Oval" fill="#46C490" fill-rule="nonzero" cx="20" cy="4" r="3"></circle>
            </g>
        </g>
    </g>
</svg>