<?xml version="1.0" encoding="UTF-8"?>
<svg width="24px" height="24px" viewBox="0 0 24 24" version="1.1" xmlns="http://www.w3.org/2000/svg" xmlns:xlink="http://www.w3.org/1999/xlink">
    <!-- Generator: Sketch 52.5 (67469) - http://www.bohemiancoding.com/sketch -->
    <title>icon/line/ic_creditzgratis</title>
    <desc>Created with Sketch.</desc>
    <g id="1-Line-Icon" stroke="none" stroke-width="1" fill="none" fill-rule="evenodd">
        <g id="icon/line/ic_creditzgratis">
            <g id="ic_creditzgratis">
                <rect id="Rectangle-4" fill="#FFFFFF" opacity="0" x="0" y="0" width="24" height="24"></rect>
                <g id="Group" transform="translate(3.000000, 3.000000)" fill="#364058">
                    <path d="M5.75,17.5 C3.1755,17.5 1,16.355 1,15 L1,14.495 C2.027,15.41 3.754,16 5.75,16 C7.746,16 9.473,15.41 10.5,14.495 L10.5,15 C10.5,16.355 8.3245,17.5 5.75,17.5 Z M5.75,3 C8.6495,3 10.5,4.1845 10.5,5 C10.5,5.8155 8.6495,7 5.75,7 C2.8505,7 1,5.8155 1,5 C1,4.1845 2.8505,3 5.75,3 Z M5.75,10 C3.1755,10 1,8.855 1,7.5 L1,6.69 C2.0355,7.4805 3.776,8 5.75,8 C7.724,8 9.4645,7.4805 10.5,6.69 L10.5,7.5 C10.5,8.855 8.3245,10 5.75,10 Z M5.75,12.5 C3.1755,12.5 1,11.355 1,10 L1,9.495 C2.027,10.41 3.754,11 5.75,11 C7.746,11 9.473,10.41 10.5,9.495 L10.5,10 C10.5,11.355 8.3245,12.5 5.75,12.5 Z M1,11.995 C2.027,12.91 3.754,13.5 5.75,13.5 C7.746,13.5 9.473,12.91 10.5,11.995 L10.5,12.5 C10.5,13.855 8.3245,15 5.75,15 C3.1755,15 1,13.855 1,12.5 L1,11.995 Z M5.75,2 C2.5745,2 0,3.343 0,5 L0,15 C0,16.9625 2.526,18.5 5.75,18.5 C8.974,18.5 11.5,16.9625 11.5,15 L11.5,5 C11.5,3.343 8.9255,2 5.75,2 Z" id="Fill-1"></path>
                    <path d="M12.5,5.5066 L12.5,6.5066 C15.2535,6.5726 17,7.7086 17,8.5001 C17,9.2916 15.2535,10.4271 12.5,10.4936 L12.5,11.4916 C14.3695,11.4496 16.009,10.9466 17,10.1901 L17,11.0001 C17,12.3111 14.9635,13.4216 12.5,13.4931 L12.5,14.4906 C14.3885,14.4431 16.0165,13.8711 17,12.9951 L17,13.5001 C17,14.8111 14.9635,15.9216 12.5,15.9931 L12.5,16.9931 C15.3255,16.9226 17.56,15.6676 17.9375,14.0001 L18,14.0001 L18,8.5001 C18,6.8871 15.5585,5.5756 12.5,5.5066" id="Fill-3"></path>
                    <polygon id="Fill-5" points="18 1.5 16.5 1.5 16.5 0 15.5 0 15.5 1.5 14 1.5 14 2.5 15.5 2.5 15.5 4 16.5 4 16.5 2.5 18 2.5"></polygon>
                </g>
            </g>
        </g>
    </g>
</svg>