<?xml version="1.0" encoding="UTF-8"?>
<svg width="24px" height="24px" viewBox="0 0 24 24" version="1.1" xmlns="http://www.w3.org/2000/svg" xmlns:xlink="http://www.w3.org/1999/xlink">
    <!-- Generator: Sketch 52.5 (67469) - http://www.bohemiancoding.com/sketch -->
    <title>icon/line/ic_diskusibarang</title>
    <desc>Created with Sketch.</desc>
    <g id="1-Line-Icon" stroke="none" stroke-width="1" fill="none" fill-rule="evenodd">
        <g id="icon/line/ic_diskusibarang">
            <g id="ic_diskusibarang">
                <rect id="Rectangle-4" fill="#FFFFFF" opacity="0" x="0" y="0" width="24" height="24"></rect>
                <g id="Group-45" transform="translate(1.000000, 4.000000)" fill="#364058">
                    <path d="M20,4 L11,4 C9.8955,4 9,4.8955 9,6 L9,11 C9,12.1045 9.8955,13 11,13 L18,13 L22,16 L22,12.75 L22,6 C22,4.8955 21.1045,4 20,4 M20,5 C20.5515,5 21,5.4485 21,6 L21,12.75 L21,14 L18.6,12.2 L18.3335,12 L18,12 L11,12 C10.4485,12 10,11.5515 10,11 L10,6 C10,5.4485 10.4485,5 11,5 L20,5" id="Fill-1"></path>
                    <path d="M19.5,8.5 C19.5,9.0525 19.0525,9.5 18.5,9.5 C17.9475,9.5 17.5,9.0525 17.5,8.5 C17.5,7.9475 17.9475,7.5 18.5,7.5 C19.0525,7.5 19.5,7.9475 19.5,8.5" id="Fill-3"></path>
                    <path d="M16.5,8.5 C16.5,9.0525 16.0525,9.5 15.5,9.5 C14.9475,9.5 14.5,9.0525 14.5,8.5 C14.5,7.9475 14.9475,7.5 15.5,7.5 C16.0525,7.5 16.5,7.9475 16.5,8.5" id="Fill-5"></path>
                    <path d="M13.5,8.5 C13.5,9.0525 13.0525,9.5 12.5,9.5 C11.9475,9.5 11.5,9.0525 11.5,8.5 C11.5,7.9475 11.9475,7.5 12.5,7.5 C13.0525,7.5 13.5,7.9475 13.5,8.5" id="Fill-7"></path>
                    <path d="M11,0 L2,0 C0.8955,0 0,0.8955 0,2 L0,8.75 L0,12 L4,9 L8,9 L8,8 L7,8 L5.5,8 L4,8 L3.6665,8 L3.4,8.2 L1,10 L1,8.75 L1,2 C1,1.4485 1.4485,1 2,1 L11,1 C11.5515,1 12,1.4485 12,2 L12,3 L13,3 L13,2 C13,0.8955 12.1045,0 11,0" id="Fill-9"></path>
                </g>
            </g>
        </g>
    </g>
</svg>