<?xml version="1.0" encoding="UTF-8"?>
<svg width="24px" height="24px" viewBox="0 0 24 24" version="1.1" xmlns="http://www.w3.org/2000/svg" xmlns:xlink="http://www.w3.org/1999/xlink">
    <!-- Generator: Sketch 52.5 (67469) - http://www.bohemiancoding.com/sketch -->
    <title>icon/line/ic_freeongkir</title>
    <desc>Created with Sketch.</desc>
    <g id="1-Line-Icon" stroke="none" stroke-width="1" fill="none" fill-rule="evenodd">
        <g id="icon/line/ic_freeongkir">
            <g id="ic_freeongkir">
                <polygon id="Fill-1" fill="#E5E5E4" opacity="0" points="0 24 24 24 24 0 0 0"></polygon>
                <polyline id="Stroke-19" stroke="#374058" points="17.5 15.5 17.5 4.5 1.5 4.5 1.5 6"></polyline>
                <path d="M0.5,12 L2.5,12" id="Stroke-21" stroke="#FEFEFE"></path>
                <path d="M0.5,11.5 L2.5,11.5" id="Stroke-23" stroke="#FEFEFE"></path>
                <path d="M11.5,9 L10,9 C9.7235,9 9.5,8.776 9.5,8.5 C9.5,8.224 9.7235,8 10,8 L11.5,8 C11.7765,8 12,8.224 12,8.5 C12,8.776 11.7765,9 11.5,9" id="Fill-25" fill="#374058"></path>
                <path d="M15.5,9 L14,9 C13.7235,9 13.5,8.776 13.5,8.5 C13.5,8.224 13.7235,8 14,8 L15.5,8 C15.7765,8 16,8.224 16,8.5 C16,8.776 15.7765,9 15.5,9" id="Fill-27" fill="#374058"></path>
                <path d="M0.5,8.5 L2.5,8.5" id="Stroke-29" stroke="#FEFEFE"></path>
                <path d="M15.5,12 L14,12 L14,11 L15,11 C15.2765,11 15.5,10.776 15.5,10.5 C15.5,10.224 15.2765,10 15,10 L14,10 L14,8 L13,8 L13,13 L14,13 L15.5,13 C15.7765,13 16,12.776 16,12.5 C16,12.224 15.7765,12 15.5,12" id="Fill-31" fill="#374058"></path>
                <path d="M11.5,12 L10,12 L10,11 L11,11 C11.2765,11 11.5,10.776 11.5,10.5 C11.5,10.224 11.2765,10 11,10 L10,10 L10,8 L9,8 L9,13 L10,13 L11.5,13 C11.7765,13 12,12.776 12,12.5 C12,12.224 11.7765,12 11.5,12" id="Fill-33" fill="#374058"></path>
                <path d="M4,8 L2.5,8 L1.5,8 L1.5,12.5 C1.5,12.776 1.7235,13 2,13 C2.2765,13 2.5,12.776 2.5,12.5 L2.5,11 L3.5,11 C3.7765,11 4,10.776 4,10.5 C4,10.224 3.7765,10 3.5,10 L2.5,10 L2.5,9 L4,9 C4.2765,9 4.5,8.776 4.5,8.5 C4.5,8.224 4.2765,8 4,8" id="Fill-35" fill="#374058"></path>
                <path d="M6.50145,10 L6.49845,10 L5.99995,10 L5.99995,9 L6.49845,9 C6.77495,9 6.99995,9.225 6.99995,9.5015 C6.99995,9.7765 6.77645,10 6.50145,10 M6.49845,8 L4.99995,8 L4.99995,8.5 L4.99995,11 L4.99995,12.5 C4.99995,12.776 5.22345,13 5.49995,13 C5.77645,13 5.99995,12.776 5.99995,12.5 L5.99995,11 L6.49845,11 C6.77495,11 6.99995,11.225 6.99995,11.5015 L6.99995,12.5 C6.99995,12.776 7.22345,13 7.49995,13 C7.77645,13 7.99995,12.776 7.99995,12.5 L7.99995,11.5015 C7.99995,11.1155 7.84945,10.767 7.60995,10.501 C7.84945,10.235 7.99995,9.887 7.99995,9.5015 C7.99995,8.6735 7.32645,8 6.49845,8" id="Fill-37" fill="#374058"></path>
                <path d="M20.5,17.5 L22.5,17.5 L22.5,12.5 L20.797,9.9455 C20.6115,9.667 20.2995,9.5 19.965,9.5 L17.5,9.5 L17.5,16" id="Stroke-39" stroke="#374058"></path>
                <polyline id="Stroke-41" stroke="#374058" points="3.5 17.5 1.5 17.5 1.5 15"></polyline>
                <path d="M16.5,17.5 L7.5,17.5" id="Stroke-43" stroke="#374058"></path>
                <path d="M18.5,15 C17.119,15 16,16.1195 16,17.5 C16,18.8805 17.119,20 18.5,20 C19.881,20 21,18.8805 21,17.5 C21,16.1195 19.881,15 18.5,15 M18.5,16 C19.327,16 20,16.673 20,17.5 C20,18.327 19.327,19 18.5,19 C17.673,19 17,18.327 17,17.5 C17,16.673 17.673,16 18.5,16" id="Fill-45" fill="#374058"></path>
                <path d="M5.5,15 C4.119,15 3,16.1195 3,17.5 C3,18.8805 4.119,20 5.5,20 C6.881,20 8,18.8805 8,17.5 C8,16.1195 6.881,15 5.5,15 M5.5,16 C6.327,16 7,16.673 7,17.5 C7,18.327 6.327,19 5.5,19 C4.673,19 4,18.327 4,17.5 C4,16.673 4.673,16 5.5,16" id="Fill-47" fill="#374058"></path>
            </g>
        </g>
    </g>
</svg>