<?xml version="1.0" encoding="UTF-8"?>
<svg width="24px" height="24px" viewBox="0 0 24 24" version="1.1" xmlns="http://www.w3.org/2000/svg" xmlns:xlink="http://www.w3.org/1999/xlink">
    <!-- Generator: Sketch 52.5 (67469) - http://www.bohemiancoding.com/sketch -->
    <title>icon/line/ic_grid</title>
    <desc>Created with Sketch.</desc>
    <g id="1-Line-Icon" stroke="none" stroke-width="1" fill="none" fill-rule="evenodd">
        <g id="icon/line/ic_grid">
            <g id="ic_grid">
                <polygon id="Fill-1" fill="#E9E8E7" opacity="0" points="0 24 24 24 24 0 0 0"></polygon>
                <path d="M12,12 L19,12 L19,5 L12,5 L12,12 Z M12,20 L19,20 L19,13 L12,13 L12,20 Z M4,20 L11,20 L11,13 L4,13 L4,20 Z M4,12 L11,12 L11,5 L4,5 L4,12 Z M19.5,4 L3.5,4 C3.224,4 3,4.224 3,4.5 L3,20.5 C3,20.776 3.224,21 3.5,21 L19.5,21 C19.776,21 20,20.776 20,20.5 L20,4.5 C20,4.224 19.776,4 19.5,4 Z" id="Fill-2" fill="#364058"></path>
            </g>
        </g>
    </g>
</svg>