<?xml version="1.0" encoding="UTF-8"?>
<svg width="24px" height="24px" viewBox="0 0 24 24" version="1.1" xmlns="http://www.w3.org/2000/svg" xmlns:xlink="http://www.w3.org/1999/xlink">
    <!-- Generator: Sketch 52.5 (67469) - http://www.bohemiancoding.com/sketch -->
    <title>icon/line/ic_help</title>
    <desc>Created with Sketch.</desc>
    <g id="1-Line-Icon" stroke="none" stroke-width="1" fill="none" fill-rule="evenodd">
        <g id="icon/line/ic_help">
            <g id="ic_help">
                <polygon id="Fill-1" fill="#E9E8E7" opacity="0" points="0 24 24 24 24 0 0 0"></polygon>
                <g id="Group-8" transform="translate(2.000000, 2.000000)" fill="#364058">
                    <path d="M10.8145,4.0918 C9.7495,3.8518 8.6565,4.0938 7.8185,4.7638 C6.9805,5.4318 6.5005,6.4298 6.5005,7.4998 C6.5005,7.7768 6.7235,7.9998 7.0005,7.9998 C7.2765,7.9998 7.5005,7.7768 7.5005,7.4998 C7.5005,6.7358 7.8435,6.0228 8.4415,5.5448 C9.0405,5.0668 9.8245,4.8908 10.5935,5.0688 C11.5035,5.2748 12.2255,5.9958 12.4325,6.9058 C12.7015,8.0918 12.1325,9.2698 11.0475,9.7708 C10.1075,10.2048 9.5005,11.1488 9.5005,12.1718 L9.5005,12.4998 C9.5005,12.7768 9.7235,12.9998 10.0005,12.9998 C10.2765,12.9998 10.5005,12.7768 10.5005,12.4998 L10.5005,12.1718 C10.5005,11.5368 10.8795,10.9498 11.4675,10.6778 C12.9845,9.9768 13.7825,8.3338 13.4075,6.6858 C13.1155,5.4018 12.0975,4.3838 10.8145,4.0918" id="Fill-2"></path>
                    <path d="M10,19 C5.038,19 1,14.963 1,10 C1,5.037 5.038,1 10,1 C14.963,1 19,5.037 19,10 C19,14.963 14.963,19 10,19 M10,0 C4.477,0 0,4.478 0,10 C0,15.522 4.477,20 10,20 C15.523,20 20,15.522 20,10 C20,4.478 15.523,0 10,0" id="Fill-4"></path>
                    <path d="M10,14 C9.448,14 9,14.449 9,15 C9,15.551 9.448,16 10,16 C10.552,16 11,15.551 11,15 C11,14.449 10.552,14 10,14" id="Fill-6"></path>
                </g>
            </g>
        </g>
    </g>
</svg>