<?xml version="1.0" encoding="UTF-8"?>
<svg width="24px" height="24px" viewBox="0 0 24 24" version="1.1" xmlns="http://www.w3.org/2000/svg" xmlns:xlink="http://www.w3.org/1999/xlink">
    <!-- Generator: Sketch 52.5 (67469) - http://www.bohemiancoding.com/sketch -->
    <title>icon/line/ic_komunitas</title>
    <desc>Created with Sketch.</desc>
    <g id="1-Line-Icon" stroke="none" stroke-width="1" fill="none" fill-rule="evenodd">
        <g id="icon/line/ic_komunitas">
            <g id="ic_komunitas">
                <polygon id="Fill-1" fill="#686868" opacity="0" points="0 24 24 24 24 0 0 0"></polygon>
                <g id="Group-14" transform="translate(1.000000, 4.000000)" fill="#384058">
                    <path d="M11,1 C12.3785,1 13.5,2.1215 13.5,3.5 C13.5,4.8785 12.3785,6 11,6 C9.6215,6 8.5,4.8785 8.5,3.5 C8.5,2.1215 9.6215,1 11,1 M11,7 C12.933,7 14.5,5.433 14.5,3.5 C14.5,1.567 12.933,0 11,0 C9.067,0 7.5,1.567 7.5,3.5 C7.5,5.433 9.067,7 11,7" id="Fill-2"></path>
                    <path d="M4,3 C4.827,3 5.5,3.673 5.5,4.5 C5.5,5.327 4.827,6 4,6 C3.173,6 2.5,5.327 2.5,4.5 C2.5,3.673 3.173,3 4,3 M4,7 C5.381,7 6.5,5.8805 6.5,4.5 C6.5,3.1195 5.381,2 4,2 C2.619,2 1.5,3.1195 1.5,4.5 C1.5,5.8805 2.619,7 4,7" id="Fill-4"></path>
                    <path d="M18,3 C18.827,3 19.5,3.673 19.5,4.5 C19.5,5.327 18.827,6 18,6 C17.173,6 16.5,5.327 16.5,4.5 C16.5,3.673 17.173,3 18,3 M18,7 C19.381,7 20.5,5.8805 20.5,4.5 C20.5,3.1195 19.381,2 18,2 C16.619,2 15.5,3.1195 15.5,4.5 C15.5,5.8805 16.619,7 18,7" id="Fill-6"></path>
                    <path d="M15.5,14.8391 C14.5445,14.6151 13.0315,14.3691 11,14.3691 C8.9685,14.3691 7.4555,14.6151 6.5,14.8391 L6.5,12.9126 C6.5,10.7551 8.5185,9.0001 11,9.0001 C13.4815,9.0001 15.5,10.7551 15.5,12.9126 L15.5,14.8391 Z M11,8.0001 C7.9625,8.0001 5.5,10.1996 5.5,12.9126 L5.5,15.5901 C5.5,15.8241 5.712,16.0001 5.955,16.0001 C6.0035,16.0001 6.0525,15.9931 6.1015,15.9786 C6.913,15.7356 8.546,15.3691 11,15.3691 C13.454,15.3691 15.087,15.7356 15.8985,15.9786 C15.948,15.9931 15.9965,16.0001 16.045,16.0001 C16.288,16.0001 16.5,15.8236 16.5,15.5901 L16.5,12.9126 C16.5,10.1996 14.0375,8.0001 11,8.0001 Z" id="Fill-8"></path>
                    <path d="M1,12.81005 L1,11.68505 C1,10.20505 2.345,9.00005 4,9.00005 C4.64,9.00005 5.23,9.17505 5.715,9.48005 C5.92,9.21505 6.15,8.97005 6.4,8.74005 C5.73,8.27005 4.9,8.00005 4,8.00005 C1.79,8.00005 0,9.65005 0,11.68505 L0,13.69505 C0,13.87005 0.155,14.00005 0.33,14.00005 C0.365,14.00005 0.4,13.99505 0.435,13.98505 C1.03,13.80005 2.215,13.52505 4,13.52505 C4.17,13.52505 4.34,13.53005 4.5,13.53505 L4.5,12.91505 C4.5,12.78505 4.505,12.66005 4.515,12.53505 C4.35,12.53005 4.175,12.52505 4,12.52505 C2.735,12.52505 1.74,12.65505 1,12.81005" id="Fill-10"></path>
                    <path d="M18,8 C17.1,8 16.27,8.27 15.6,8.74 C15.85,8.97 16.08,9.215 16.285,9.48 C16.77,9.175 17.36,9 18,9 C19.655,9 21,10.205 21,11.685 L21,12.81 C20.26,12.655 19.265,12.525 18,12.525 C17.825,12.525 17.65,12.53 17.485,12.535 C17.495,12.66 17.5,12.785 17.5,12.915 L17.5,13.535 C17.66,13.53 17.83,13.525 18,13.525 C19.785,13.525 20.97,13.8 21.565,13.985 C21.6,13.995 21.635,14 21.67,14 C21.845,14 22,13.87 22,13.695 L22,11.685 C22,9.65 20.21,8 18,8" id="Fill-12"></path>
                </g>
            </g>
        </g>
    </g>
</svg>