<?xml version="1.0" encoding="UTF-8"?>
<svg width="24px" height="24px" viewBox="0 0 24 24" version="1.1" xmlns="http://www.w3.org/2000/svg" xmlns:xlink="http://www.w3.org/1999/xlink">
    <!-- Generator: Sketch 52.5 (67469) - http://www.bohemiancoding.com/sketch -->
    <title>icon/line/ic_login</title>
    <desc>Created with Sketch.</desc>
    <g id="1-Line-Icon" stroke="none" stroke-width="1" fill="none" fill-rule="evenodd">
        <g id="icon/line/ic_login">
            <g id="ic_login">
                <polygon id="Fill-1" fill="#686868" opacity="0" points="0 24 24 24 24 0 0 0"></polygon>
                <g id="Group-6" transform="translate(3.000000, 3.000000)" fill="#374157">
                    <path d="M16.5,18 L5.5,18 C4.673,18 4,17.327 4,16.5 L4,13 L5,13 L5,16.5 C5,16.7755 5.224,17 5.5,17 L16.5,17 C16.776,17 17,16.7755 17,16.5 L17,1.5 C17,1.2245 16.776,1 16.5,1 L5.5,1 C5.224,1 5,1.2245 5,1.5 L5,5 L4,5 L4,1.5 C4,0.673 4.673,0 5.5,0 L16.5,0 C17.327,0 18,0.673 18,1.5 L18,16.5 C18,17.327 17.327,18 16.5,18" id="Fill-2"></path>
                    <polygon id="Fill-4" points="7.1465 11.6465 7.8535 12.3535 11.207 9 7.8535 5.6465 7.1465 6.3535 9.293 8.5 -1.77635684e-15 8.5 -1.77635684e-15 9.5 9.293 9.5"></polygon>
                </g>
            </g>
        </g>
    </g>
</svg>