<?xml version="1.0" encoding="UTF-8"?>
<svg width="24px" height="24px" viewBox="0 0 24 24" version="1.1" xmlns="http://www.w3.org/2000/svg" xmlns:xlink="http://www.w3.org/1999/xlink">
    <!-- Generator: Sketch 52.5 (67469) - http://www.bohemiancoding.com/sketch -->
    <title>icon/line/ic_pembeliprioritas</title>
    <desc>Created with Sketch.</desc>
    <g id="1-Line-Icon" stroke="none" stroke-width="1" fill="none" fill-rule="evenodd">
        <g id="icon/line/ic_pembeliprioritas">
            <g id="ic_pembeliprioritas">
                <rect id="Rectangle-4" fill="#FFFFFF" opacity="0" x="0" y="0" width="24" height="24"></rect>
                <g id="Group-2" transform="translate(3.000000, 3.000000)" fill="#364058">
                    <path d="M6.75,0 C4.541,0 2.75,1.791 2.75,4 C2.75,6.209 4.541,8 6.75,8 C8.959,8 10.75,6.209 10.75,4 C10.75,1.791 8.959,0 6.75,0 M6.75,1.125 C8.3355,1.125 9.625,2.4145 9.625,4 C9.625,5.5855 8.3355,6.875 6.75,6.875 C5.1645,6.875 3.875,5.5855 3.875,4 C3.875,2.4145 5.1645,1.125 6.75,1.125" id="Fill-1"></path>
                    <path d="M13.2539,15.15625 L12.4824,15.55625 C12.4894,15.67625 12.4999,15.79525 12.4999,15.91725 L12.4999,16.83475 C10.6339,16.26125 8.7024,15.97075 6.7499,15.97075 C4.7974,15.97075 2.8659,16.26125 0.9999,16.83475 L0.9999,15.91725 C0.9999,12.65425 3.5794,9.99975 6.7499,9.99975 C6.8689,9.99975 6.9849,10.01075 7.1019,10.01825 C6.9839,9.71075 6.9699,9.36775 7.0759,9.03875 C7.0779,9.03125 7.0819,9.02475 7.0844,9.01725 C6.9729,9.01175 6.8629,8.99975 6.7499,8.99975 C3.0219,8.99975 -0.0001,12.09675 -0.0001,15.91725 L-0.0001,17.42325 C-0.0001,17.75175 0.2629,17.99975 0.5614,17.99975 C0.6204,17.99975 0.6804,17.99025 0.7404,17.96975 C2.6909,17.30375 4.7204,16.97075 6.7499,16.97075 C8.7794,16.97075 10.8094,17.30375 12.7594,17.96975 C12.8194,17.99025 12.8794,17.99975 12.9384,17.99975 C13.2374,17.99975 13.4999,17.75175 13.4999,17.42325 L13.4999,15.91725 C13.4999,15.69775 13.4874,15.48125 13.4679,15.26725 L13.2539,15.15625 Z" id="Fill-3"></path>
                    <path d="M13.2537,5.5984 C13.0817,5.5984 12.9097,5.6874 12.8202,5.8664 L11.5827,8.3389 C11.5057,8.4929 11.3582,8.5994 11.1877,8.6239 L8.4117,9.0214 C8.0202,9.0779 7.8652,9.5599 8.1502,9.8339 L10.1502,11.7564 C10.2757,11.8774 10.3332,12.0529 10.3032,12.2249 L9.8332,14.9279 C9.7792,15.2409 10.0277,15.4959 10.3102,15.4959 C10.3837,15.4959 10.4597,15.4784 10.5327,15.4404 L13.0122,14.1549 C13.0877,14.1159 13.1707,14.0959 13.2537,14.0959 C13.3367,14.0959 13.4197,14.1159 13.4952,14.1549 L15.9837,15.4454 C16.0562,15.4829 16.1312,15.4999 16.2042,15.4999 C16.4837,15.4999 16.7297,15.2479 16.6757,14.9379 L16.2042,12.2249 C16.1742,12.0529 16.2317,11.8774 16.3572,11.7564 L18.3527,9.8379 C18.6397,9.5624 18.4832,9.0774 18.0897,9.0209 L15.3197,8.6239 C15.1492,8.5994 15.0017,8.4929 14.9247,8.3389 L13.6872,5.8664 C13.5977,5.6874 13.4257,5.5984 13.2537,5.5984 M13.2537,7.2349 L14.0302,8.7864 C14.2537,9.2334 14.6827,9.5429 15.1777,9.6139 L16.8882,9.8589 L15.6642,11.0359 C15.2982,11.3874 15.1317,11.8964 15.2187,12.3964 L15.5102,14.0734 L13.9557,13.2674 C13.7397,13.1554 13.4972,13.0959 13.2537,13.0959 C13.0102,13.0959 12.7677,13.1554 12.5517,13.2674 L10.9972,14.0734 L11.2887,12.3964 C11.3757,11.8964 11.2092,11.3874 10.8432,11.0354 L9.6192,9.8589 L11.3297,9.6139 C11.8247,9.5429 12.2537,9.2334 12.4772,8.7864 L13.2537,7.2349" id="Fill-8"></path>
                </g>
            </g>
        </g>
    </g>
</svg>