<?xml version="1.0" encoding="UTF-8"?>
<svg width="24px" height="24px" viewBox="0 0 24 24" version="1.1" xmlns="http://www.w3.org/2000/svg" xmlns:xlink="http://www.w3.org/1999/xlink">
    <!-- Generator: Sketch 52.5 (67469) - http://www.bohemiancoding.com/sketch -->
    <title>icon/line/ic_pengaturanlapak</title>
    <desc>Created with Sketch.</desc>
    <g id="1-Line-Icon" stroke="none" stroke-width="1" fill="none" fill-rule="evenodd">
        <g id="icon/line/ic_pengaturanlapak">
            <g id="ic_pengaturanlapak">
                <rect id="Rectangle-4" fill="#FFFFFF" opacity="0" x="0" y="0" width="24" height="24"></rect>
                <g id="Group" transform="translate(2.000000, 2.500000)" fill="#364058">
                    <path d="M17.5,18 L17,18 L17,11 L16,11 L16,18 L2,18 L2,8.5 L2.5,8.5 L5,8.5 L5,14.5 L4,14.5 C3.724,14.5 3.5,14.7235 3.5,15 C3.5,15.2765 3.724,15.5 4,15.5 L5,15.5 L13,15.5 L14,15.5 C14.276,15.5 14.5,15.2765 14.5,15 C14.5,14.7235 14.276,14.5 14,14.5 L13,14.5 L13,11 L12,11 L12,14.5 L6,14.5 L6,8.5 L7,8.5 L7.5,8.5 L9,8.5 L9,7.5 L7.5,7.5 L7,7.5 L5,7.5 L2.5,7.5 C1.673,7.5 1,6.827 1,6 L1,5.133 L2.79,2 L9,2 L9,1 L2.21,1 L0,4.867 L0,6 C0,6.8135 0.3965,7.5305 1,7.987 L1,18 L0.5,18 C0.224,18 0,18.2235 0,18.5 C0,18.7765 0.224,19 0.5,19 L1,19 L17,19 L17.5,19 C17.776,19 18,18.7765 18,18.5 C18,18.2235 17.776,18 17.5,18" id="Fill-1"></path>
                    <path d="M15,5.5 C14.7245,5.5 14.5,5.276 14.5,5 C14.5,4.724 14.7245,4.5 15,4.5 C15.2755,4.5 15.5,4.724 15.5,5 C15.5,5.276 15.2755,5.5 15,5.5 M15,3.5 C14.173,3.5 13.5,4.173 13.5,5 C13.5,5.827 14.173,6.5 15,6.5 C15.827,6.5 16.5,5.827 16.5,5 C16.5,4.173 15.827,3.5 15,3.5" id="Fill-3"></path>
                    <path d="M18,5 C18,6.6545 16.6545,8 15,8 C13.3455,8 12,6.6545 12,5 C12,3.3455 13.3455,2 15,2 C16.6545,2 18,3.3455 18,5 Z M20,5.5 L20,4.5 L18.9655,4.5 C18.874,3.7715 18.586,3.104 18.156,2.5515 L18.889,1.818 L18.182,1.111 L17.449,1.844 C16.896,1.414 16.229,1.126 15.5,1.0345 L15.5,0 L14.5,0 L14.5,1.0345 C13.771,1.126 13.104,1.414 12.551,1.844 L11.818,1.111 L11.111,1.818 L11.844,2.5515 C11.414,3.104 11.126,3.7715 11.0345,4.5 L10,4.5 L10,5.5 L11.0345,5.5 C11.126,6.2285 11.414,6.896 11.844,7.4485 L11.111,8.182 L11.818,8.889 L12.551,8.156 C13.104,8.586 13.771,8.874 14.5,8.9655 L14.5,10 L15.5,10 L15.5,8.9655 C16.229,8.874 16.896,8.586 17.449,8.156 L18.182,8.889 L18.889,8.182 L18.156,7.4485 C18.586,6.896 18.874,6.2285 18.9655,5.5 L20,5.5 Z" id="Fill-5"></path>
                </g>
            </g>
        </g>
    </g>
</svg>