<?xml version="1.0" encoding="UTF-8"?>
<svg width="24px" height="24px" viewBox="0 0 24 24" version="1.1" xmlns="http://www.w3.org/2000/svg" xmlns:xlink="http://www.w3.org/1999/xlink">
    <!-- Generator: Sketch 52.5 (67469) - http://www.bohemiancoding.com/sketch -->
    <title>icon/line/ic_refund</title>
    <desc>Created with Sketch.</desc>
    <g id="1-Line-Icon" stroke="none" stroke-width="1" fill="none" fill-rule="evenodd">
        <g id="icon/line/ic_refund">
            <g id="ic_refund">
                <rect id="Rectangle" fill="#D8D8D8" opacity="0" x="0" y="0" width="24" height="24"></rect>
                <g id="refund" transform="translate(1.000000, 4.000000)" stroke="#364058">
                    <polyline id="Stroke-19" points="16 11.5 10 11.5 0.5 11.5 0.5 0.5 10 0.5 19.5 0.5 19.5 7"></polyline>
                    <path d="M12.5,6 C12.5,7.3805 11.381,8.5 10,8.5 C8.619,8.5 7.5,7.3805 7.5,6 C7.5,4.6195 8.619,3.5 10,3.5 C11.381,3.5 12.5,4.6195 12.5,6 Z" id="Stroke-21"></path>
                    <path d="M15,2.5 L18,2.5" id="Stroke-23"></path>
                    <path d="M2,9.5 L5,9.5" id="Stroke-25"></path>
                    <polyline id="Stroke-27" points="19 11.5 17 13.5 19 15.5"></polyline>
                    <path d="M17.5,13.5 L19,13.5 C20.381,13.5 21.5,12.381 21.5,11 C21.5,9.619 20.381,8.5 19,8.5 L15,8.5" id="Stroke-29"></path>
                </g>
            </g>
        </g>
    </g>
</svg>