<?xml version="1.0" encoding="UTF-8"?>
<svg width="24px" height="24px" viewBox="0 0 24 24" version="1.1" xmlns="http://www.w3.org/2000/svg" xmlns:xlink="http://www.w3.org/1999/xlink">
    <!-- Generator: Sketch 52.5 (67469) - http://www.bohemiancoding.com/sketch -->
    <title>icon/line/ic_reminderdisable</title>
    <desc>Created with Sketch.</desc>
    <g id="1-Line-Icon" stroke="none" stroke-width="1" fill="none" fill-rule="evenodd">
        <g id="icon/line/ic_reminderdisable">
            <g id="ic_reminderdisable">
                <polygon id="Path" fill="#E3E3E2" opacity="0" points="0 24 24 24 24 0 0 0"></polygon>
                <path d="M12,21 C11.071,21 10.2945,20.3605 10.071,19.5 L13.929,19.5 C13.7055,20.3605 12.929,21 12,21 M19.2785,16.851 C18.791,16.5605 18.5,16.07 18.5,15.5385 L18.5,10.6985 C18.5,10.05 18.405,9.422 18.2345,8.826 L17.4035,9.657 C17.4645,9.996 17.5,10.3435 17.5,10.6985 L17.5,15.5385 C17.5,16.426 17.9735,17.238 18.7665,17.71 C19.076,17.895 19.302,18.1745 19.4155,18.5 L8.5605,18.5 L7.5605,19.5 L9.045,19.5 C9.284,20.9165 10.5165,22 12,22 C13.4835,22 14.716,20.9165 14.955,19.5 L20,19.5 C20.2765,19.5 20.5,19.2765 20.5,19 C20.5,18.124 20.0315,17.301 19.2785,16.851" id="Fill-19" fill="#374058"></path>
                <path d="M5.29295,18.5 L4.58445,18.5 C4.69845,18.1745 4.92395,17.895 5.23345,17.7105 C6.02645,17.238 6.49995,16.426 6.49995,15.5385 L6.49995,10.5 C6.49995,9.0115 7.08495,7.618 8.14695,6.575 C9.20845,5.5325 10.59595,4.9775 12.10295,5.001 C13.87945,5.0335 15.45195,5.961 16.43595,7.357 L5.29295,18.5 Z M10.99995,4 C10.99995,3.4485 11.44895,3 11.99995,3 C12.55145,3 12.99995,3.4485 12.99995,4 L12.99995,4.086 C12.71245,4.039 12.42045,4.0065 12.12145,4.001 C11.74145,3.996 11.36745,4.0285 10.99995,4.0855 L10.99995,4 Z M20.85345,3.6465 C20.65795,3.451 20.34195,3.451 20.14645,3.6465 L17.15045,6.6425 C16.35795,5.5755 15.26045,4.7665 13.99995,4.339 L13.99995,4 C13.99995,2.897 13.10295,2 11.99995,2 C10.89695,2 9.99995,2.897 9.99995,4 L9.99995,4.323 C9.05245,4.628 8.17845,5.1425 7.44645,5.862 C6.19145,7.094 5.49995,8.741 5.49995,10.5 L5.49995,15.5385 C5.49995,16.07 5.20895,16.5605 4.72145,16.8515 C3.96845,17.301 3.49995,18.124 3.49995,19 C3.49995,19.2765 3.72345,19.5 3.99995,19.5 L4.29295,19.5 L2.64645,21.1465 C2.45095,21.342 2.45095,21.658 2.64645,21.8535 C2.74395,21.951 2.87195,22 2.99995,22 C3.12795,22 3.25595,21.951 3.35345,21.8535 L20.85345,4.3535 C21.04895,4.158 21.04895,3.842 20.85345,3.6465 Z" id="Fill-21" fill="#374058"></path>
            </g>
        </g>
    </g>
</svg>