<?xml version="1.0" encoding="UTF-8"?>
<svg width="24px" height="24px" viewBox="0 0 24 24" version="1.1" xmlns="http://www.w3.org/2000/svg" xmlns:xlink="http://www.w3.org/1999/xlink">
    <!-- Generator: Sketch 52.5 (67469) - http://www.bohemiancoding.com/sketch -->
    <title>icon/line/ic_reminder</title>
    <desc>Created with Sketch.</desc>
    <g id="1-Line-Icon" stroke="none" stroke-width="1" fill="none" fill-rule="evenodd">
        <g id="icon/line/icon/line/ic_reminder">
            <g id="ic_reminder">
                <polygon id="Path" fill="#E3E3E2" opacity="0" points="0 24 24 24 24 0 0 0"></polygon>
                <path d="M6.65965,3.8882 C6.87415,3.7142 6.90715,3.3992 6.73265,3.1852 C6.55915,2.9707 6.24465,2.9377 6.02965,3.1117 C4.22365,4.5762 3.01865,6.6382 2.63665,8.9177 C2.59115,9.1902 2.77465,9.4477 3.04715,9.4932 C3.07515,9.4982 3.10315,9.5002 3.13015,9.5002 C3.37015,9.5002 3.58215,9.3272 3.62315,9.0827 C3.96415,7.0442 5.04315,5.1992 6.65965,3.8882" id="Fill-19" fill="#374058"></path>
                <path d="M17.8965,3.1128 C17.6805,2.9378 17.3665,2.9698 17.193,3.1838 C17.018,3.3973 17.05,3.7128 17.2635,3.8873 C18.879,5.2063 19.974,7.0538 20.348,9.0903 C20.392,9.3318 20.6025,9.4998 20.8395,9.4998 C20.869,9.4998 20.8995,9.4978 20.93,9.4918 C21.2015,9.4418 21.3815,9.1813 21.3315,8.9098 C20.915,6.6398 19.695,4.5813 17.8965,3.1128" id="Fill-21" fill="#374058"></path>
                <path d="M4.58445,18.5 C4.69845,18.1745 4.92395,17.895 5.23345,17.7105 C6.02645,17.238 6.49995,16.426 6.49995,15.5385 L6.49995,10.5 C6.49995,9.0115 7.08495,7.618 8.14695,6.575 C9.20845,5.533 10.59445,4.971 12.10295,5.001 C15.07895,5.0555 17.49995,7.6115 17.49995,10.6985 L17.49995,15.5385 C17.49995,16.426 17.97345,17.238 18.76645,17.71 C19.07595,17.895 19.30195,18.1745 19.41545,18.5 L4.58445,18.5 Z M11.99995,21 C11.07095,21 10.29445,20.3605 10.07095,19.5 L13.92895,19.5 C13.70545,20.3605 12.92895,21 11.99995,21 Z M10.99995,4 C10.99995,3.4485 11.44895,3 11.99995,3 C12.55145,3 12.99995,3.4485 12.99995,4 L12.99995,4.087 C12.71195,4.0405 12.42045,4.0065 12.12145,4.001 C11.74245,3.9965 11.36795,4.03 10.99995,4.0875 L10.99995,4 Z M19.27845,16.851 C18.79095,16.5605 18.49995,16.07 18.49995,15.5385 L18.49995,10.6985 C18.49995,7.7445 16.60295,5.2045 13.99995,4.3275 L13.99995,4 C13.99995,2.897 13.10295,2 11.99995,2 C10.89695,2 9.99995,2.897 9.99995,4 L9.99995,4.3255 C9.05295,4.6305 8.17795,5.1435 7.44645,5.862 C6.19145,7.094 5.49995,8.741 5.49995,10.5 L5.49995,15.5385 C5.49995,16.07 5.20895,16.5605 4.72145,16.8515 C3.96845,17.301 3.49995,18.124 3.49995,19 C3.49995,19.2765 3.72345,19.5 3.99995,19.5 L9.04495,19.5 C9.28395,20.9165 10.51645,22 11.99995,22 C13.48345,22 14.71595,20.9165 14.95495,19.5 L19.99995,19.5 C20.27645,19.5 20.49995,19.2765 20.49995,19 C20.49995,18.124 20.03195,17.301 19.27845,16.851 Z" id="Fill-23" fill="#374058"></path>
            </g>
        </g>
    </g>
</svg>