<?xml version="1.0" encoding="UTF-8"?>
<svg width="24px" height="24px" viewBox="0 0 24 24" version="1.1" xmlns="http://www.w3.org/2000/svg" xmlns:xlink="http://www.w3.org/1999/xlink">
    <!-- Generator: Sketch 52.5 (67469) - http://www.bohemiancoding.com/sketch -->
    <title>icon/line/ic_tanggalpulang</title>
    <desc>Created with Sketch.</desc>
    <g id="1-Line-Icon" stroke="none" stroke-width="1" fill="none" fill-rule="evenodd">
        <g id="icon/line/ic_tanggalpulang">
            <g id="ic_tanggalpulang" transform="translate(12.000000, 12.000000) scale(-1, 1) translate(-12.000000, -12.000000) ">
                <polygon id="Path" fill="#E4E4E3" opacity="0" points="0 24 24 24 24 0 0 0"></polygon>
                <path d="M9.00245,14.96825 L8.99995,14.96825 C8.72495,14.96825 8.50145,15.19025 8.49995,15.46575 C8.49845,15.74225 8.72145,15.96675 8.99745,15.96825 L10.49745,15.97575 L10.49995,15.97575 C10.77495,15.97575 10.99845,15.75325 10.99995,15.47825 C11.00145,15.20175 10.77895,14.97725 10.50245,14.97575 L9.00245,14.96825 Z" id="Fill-1" fill="#394058"></path>
                <path d="M3.0371,6 L4.0001,6 L4.0001,6.5 C4.0001,6.7765 4.2236,7 4.5001,7 C4.7766,7 5.0001,6.7765 5.0001,6.5 L5.0001,6 L13.0001,6 L13.0001,6.5 C13.0001,6.7765 13.2236,7 13.5001,7 C13.7766,7 14.0001,6.7765 14.0001,6.5 L14.0001,6 L14.9631,6 C15.5346,6 16.0001,6.6185 16.0001,7.379 L16.0001,9 L2.0001,9 L2.0001,7.379 C2.0001,6.6185 2.4651,6 3.0371,6 M22.8536,15.1465 L19.3536,11.6465 C19.1581,11.451 18.8416,11.451 18.6466,11.6465 C18.4511,11.842 18.4511,12.158 18.6466,12.3535 L21.2911,14.998 L12.5011,14.9825 L12.5001,14.9825 C12.2241,14.9825 12.0006,15.2055 12.0001,15.4815 C11.9996,15.758 12.2231,15.982 12.4991,15.9825 L16.0286,15.989 L16.0286,17.5 C16.0286,18.327 15.3561,19 14.5286,19 L3.0371,19 C2.4651,19 2.0001,18.3815 2.0001,17.621 L2.0001,10 L16.0001,10 L16.0001,12.5 C16.0001,12.7765 16.2236,13 16.5001,13 C16.7766,13 17.0001,12.7765 17.0001,12.5 L17.0001,7.379 C17.0001,6.0675 16.0861,5 14.9631,5 L14.0001,5 L14.0001,4.5 C14.0001,4.2235 13.7766,4 13.5001,4 C13.2236,4 13.0001,4.2235 13.0001,4.5 L13.0001,5 L5.0001,5 L5.0001,4.5 C5.0001,4.2235 4.7766,4 4.5001,4 C4.2236,4 4.0001,4.2235 4.0001,4.5 L4.0001,5 L3.0371,5 C1.9141,5 1.0001,6.0675 1.0001,7.379 L1.0001,17.621 C1.0001,18.9325 1.9141,20 3.0371,20 L14.5286,20 C15.9071,20 17.0286,18.8785 17.0286,17.5 L17.0286,15.9905 L21.2951,15.998 L18.6466,18.6465 C18.4511,18.842 18.4511,19.158 18.6466,19.3535 C18.7441,19.451 18.8721,19.5 19.0001,19.5 C19.1281,19.5 19.2561,19.451 19.3536,19.3535 L22.8536,15.8535 C23.0486,15.658 23.0486,15.342 22.8536,15.1465" id="Fill-3" fill="#394058"></path>
            </g>
        </g>
    </g>
</svg>