<?xml version="1.0" encoding="UTF-8"?>
<svg width="24px" height="24px" viewBox="0 0 24 24" version="1.1" xmlns="http://www.w3.org/2000/svg" xmlns:xlink="http://www.w3.org/1999/xlink">
    <!-- Generator: Sketch 52.5 (67469) - http://www.bohemiancoding.com/sketch -->
    <title>icon/line/ic_ulasan</title>
    <desc>Created with Sketch.</desc>
    <g id="1-Line-Icon" stroke="none" stroke-width="1" fill="none" fill-rule="evenodd">
        <g id="icon/line/ic_ulasan">
            <g id="ic_ulasan">
                <polygon id="Path" fill="#E5E5E4" opacity="0" points="0 24 24 24 24 0 0 0"></polygon>
                <path d="M12,16.5 L5.5,16.5 L1.5,19.5 L1.5,15.573 L1.5,7 C1.5,5.6655 2.717,4.5 4,4.5 L16.1765,4.5 C17.4595,4.5 18.5,5.582 18.5,6.9165 L18.5,8" id="Stroke-19" stroke="#384058" stroke-linecap="round"></path>
                <path d="M17.50195,9.5249 C17.32195,9.5249 17.14095,9.6184 17.04795,9.8054 L15.75095,12.3969 C15.66995,12.5579 15.51545,12.6699 15.33695,12.6954 L12.42795,13.1124 C12.01695,13.1709 11.85445,13.6764 12.15345,13.9634 L14.24895,15.9784 C14.38095,16.1049 14.44145,16.2889 14.40995,16.4694 L13.91745,19.3024 C13.86045,19.6299 14.12045,19.8974 14.41695,19.8974 C14.49395,19.8974 14.57395,19.8789 14.65045,19.8394 L17.24845,18.4924 C17.32795,18.4514 17.41495,18.4304 17.50195,18.4304 C17.58895,18.4304 17.67595,18.4514 17.75545,18.4924 L20.36295,19.8444 C20.43895,19.8839 20.51745,19.9014 20.59395,19.9014 C20.88695,19.9014 21.14445,19.6374 21.08845,19.3124 L20.59395,16.4694 C20.56245,16.2889 20.62245,16.1049 20.75445,15.9784 L22.84595,13.9679 C23.14645,13.6789 22.98245,13.1704 22.56995,13.1114 L19.66695,12.6954 C19.48845,12.6699 19.33345,12.5579 19.25295,12.3969 L17.95595,9.8054 C17.86245,9.6184 17.68195,9.5249 17.50195,9.5249 M17.50195,11.1324 L18.35845,12.8444 C18.58595,13.2989 19.02195,13.6134 19.52495,13.6849 L21.41495,13.9559 L20.06145,15.2574 C19.68945,15.6154 19.51995,16.1324 19.60845,16.6404 L19.93045,18.4934 L18.21545,17.6044 C17.99595,17.4904 17.74895,17.4304 17.50195,17.4304 C17.25495,17.4304 17.00795,17.4904 16.78795,17.6044 L15.07295,18.4934 L15.39495,16.6404 C15.48345,16.1324 15.31445,15.6154 14.94245,15.2574 L13.58845,13.9559 L15.47845,13.6849 C15.98145,13.6134 16.41745,13.2989 16.64495,12.8444 L17.50195,11.1324" id="Fill-21" fill="#384058"></path>
                <path d="M7,10.5 C7,11.052 6.552,11.5 6,11.5 C5.448,11.5 5,11.052 5,10.5 C5,9.948 5.448,9.5 6,9.5 C6.552,9.5 7,9.948 7,10.5" id="Fill-23" fill="#384058"></path>
                <path d="M11,10.5 C11,11.052 10.552,11.5 10,11.5 C9.448,11.5 9,11.052 9,10.5 C9,9.948 9.448,9.5 10,9.5 C10.552,9.5 11,9.948 11,10.5" id="Fill-25" fill="#384058"></path>
                <path d="M15,10.5 C15,11.052 14.552,11.5 14,11.5 C13.448,11.5 13,11.052 13,10.5 C13,9.948 13.448,9.5 14,9.5 C14.552,9.5 15,9.948 15,10.5" id="Fill-27" fill="#384058"></path>
            </g>
        </g>
    </g>
</svg>