<?xml version="1.0" encoding="UTF-8"?>
<svg width="24px" height="24px" viewBox="0 0 24 24" version="1.1" xmlns="http://www.w3.org/2000/svg" xmlns:xlink="http://www.w3.org/1999/xlink">
    <!-- Generator: Sketch 52.5 (67469) - http://www.bohemiancoding.com/sketch -->
    <title>icon/line/ic_unduhmutasi</title>
    <desc>Created with Sketch.</desc>
    <defs>
        <filter x="0.0%" y="0.0%" width="100.0%" height="100.0%" filterUnits="objectBoundingBox" id="filter-1">
            <feGaussianBlur stdDeviation="5" in="SourceGraphic"></feGaussianBlur>
        </filter>
    </defs>
    <g id="1-Line-Icon" stroke="none" stroke-width="1" fill="none" fill-rule="evenodd">
        <g id="icon/line/ic_unduhmutasi">
            <g id="ic_unduhmutasi">
                <polygon id="Fill-1" fill="#686868" opacity="0" filter="url(#filter-1)" points="0 24 24 24 24 0 0 0"></polygon>
                <g id="Group-11" transform="translate(3.000000, 3.000000)" fill="#364058">
                    <path d="M1,15.5 L1,10 L4,10 L4,15.5 C4,16.327 3.327,17 2.5,17 C1.673,17 1,16.327 1,15.5 M5,15.5 L5,9 L5,1 L15,1 L15,8 L16,8 L16,0 L4,0 L4,9 L0,9 L0,15.5 C0,16.8785 1.1215,18 2.5,18 L9,18 L9,17 L4.4875,17 C4.8045,16.581 5,16.065 5,15.5" id="Fill-2"></path>
                    <path d="M13,13 L13,10 L15,10 L15,13 L15.5,13 L14,14.5 L12.5,13 L13,13 Z M18,12 L16,12 L16,9 L12,9 L12,12 L10,12 L14,16 L18,12 Z" id="Fill-4"></path>
                    <polygon id="Fill-6" points="10 18 18 18 18 17 10 17"></polygon>
                    <polygon id="Fill-8" points="6 3 14 3 14 2 6 2"></polygon>
                    <polygon id="Fill-9" points="6 5 10 5 10 4 6 4"></polygon>
                    <polygon id="Fill-10" points="6 7 8 7 8 6 6 6"></polygon>
                </g>
            </g>
        </g>
    </g>
</svg>