<?xml version="1.0" encoding="UTF-8"?>
<svg width="24px" height="24px" viewBox="0 0 24 24" version="1.1" xmlns="http://www.w3.org/2000/svg" xmlns:xlink="http://www.w3.org/1999/xlink">
    <!-- Generator: Sketch 52.5 (67469) - http://www.bohemiancoding.com/sketch -->
    <title>icon/line/ic_verifikasidiri</title>
    <desc>Created with Sketch.</desc>
    <g id="1-Line-Icon" stroke="none" stroke-width="1" fill="none" fill-rule="evenodd">
        <g id="icon/line/ic_verifikasidiri">
            <g id="ic_verifikasidiri">
                <rect id="Rectangle-4" fill="#FFFFFF" opacity="0" x="0" y="0" width="24" height="24"></rect>
                <g id="Group" transform="translate(3.000000, 3.000000)" fill="#364058">
                    <path d="M6.75,0 C4.541,0 2.75,1.791 2.75,4 C2.75,6.209 4.541,8 6.75,8 C8.959,8 10.75,6.209 10.75,4 C10.75,1.791 8.959,0 6.75,0 M6.75,1.125 C8.3355,1.125 9.625,2.4145 9.625,4 C9.625,5.5855 8.3355,6.875 6.75,6.875 C5.1645,6.875 3.875,5.5855 3.875,4 C3.875,2.4145 5.1645,1.125 6.75,1.125" id="Fill-1"></path>
                    <path d="M12.375,16 L12.375,16.666 C10.547,16.1215 8.6585,15.8455 6.75,15.8455 C4.8415,15.8455 2.953,16.1215 1.125,16.666 L1.125,15.917 C1.125,12.7235 3.6485,10.125 6.75,10.125 C7.18,10.125 7.5975,10.1795 8,10.274 L8,9.1235 C7.5945,9.0455 7.1775,9 6.75,9 C3.022,9 0,12.097 0,15.917 L0,17.423 C0,17.752 0.2625,18 0.5615,18 C0.6205,18 0.6805,17.9905 0.7405,17.97 C2.691,17.3035 4.7205,16.9705 6.75,16.9705 C8.7795,16.9705 10.809,17.3035 12.7595,17.97 C12.8195,17.9905 12.8795,18 12.9385,18 C13.237,18 13.5,17.752 13.5,17.423 L13.5,16 L12.375,16 Z" id="Fill-3"></path>
                    <path d="M13.5,6 C11.0145,6 9,8.0145 9,10.5 C9,12.9855 11.0145,15 13.5,15 C15.9855,15 18,12.9855 18,10.5 C18,8.0145 15.9855,6 13.5,6 M13.5,7 C15.43,7 17,8.57 17,10.5 C17,12.43 15.43,14 13.5,14 C11.57,14 10,12.43 10,10.5 C10,8.57 11.57,7 13.5,7" id="Fill-5"></path>
                    <polygon id="Fill-7" points="13 12.20705 11.1465 10.35355 11.8535 9.64655 13 10.79305 15.1465 8.64655 15.8535 9.35355"></polygon>
                </g>
            </g>
        </g>
    </g>
</svg>