<?xml version="1.0" encoding="UTF-8"?>
<svg width="24px" height="24px" viewBox="0 0 24 24" version="1.1" xmlns="http://www.w3.org/2000/svg" xmlns:xlink="http://www.w3.org/1999/xlink">
    <!-- Generator: Sketch 52.5 (67469) - http://www.bohemiancoding.com/sketch -->
    <title>icon/line/ic_waktuproses</title>
    <desc>Created with Sketch.</desc>
    <g id="1-Line-Icon" stroke="none" stroke-width="1" fill="none" fill-rule="evenodd">
        <g id="icon/line/ic_waktuproses">
            <g id="ic_waktuproses">
                <polygon id="Fill-1" fill="#E5E5E4" opacity="0" points="0 24 24 24 24 0 0 0"></polygon>
                <path d="M20,13 C20,17.6945 16.1945,21.5 11.5,21.5 C6.8055,21.5 3,17.6945 3,13 C3,8.3055 6.8055,4.5 11.5,4.5 C16.1945,4.5 20,8.3055 20,13 Z" id="Stroke-3" stroke="#374058"></path>
                <path d="M13.5,3 L9.5,3 C9.2235,3 9,2.776 9,2.5 C9,2.224 9.2235,2 9.5,2 L13.5,2 C13.7765,2 14,2.224 14,2.5 C14,2.776 13.7765,3 13.5,3" id="Fill-5" fill="#374058"></path>
                <polyline id="Stroke-9" stroke="#374058" stroke-linecap="square" stroke-linejoin="round" points="11.5 7.5 11.5 13 15 15"></polyline>
            </g>
        </g>
    </g>
</svg>